name C:/MyDriveSym/Projects/mobilecap/Data\Session20210820_0001\mocap\ForceDataProcessed\DJ2_forces.mot
datacolumns 28
datarows 11
range 2.00950000 2.01450000
endheader 
time	R_ground_force_vx	R_ground_force_vy	R_ground_force_vz	R_ground_force_px	R_ground_force_py	R_ground_force_pz	R_ground_torque_x	R_ground_torque_y	R_ground_torque_z	L_ground_force_vx	L_ground_force_vy	L_ground_force_vz	L_ground_force_px	L_ground_force_py	L_ground_force_pz	L_ground_torque_x	L_ground_torque_y	L_ground_torque_z	3_ground_force_vx	3_ground_force_vy	3_ground_force_vz	3_ground_force_px	3_ground_force_py	3_ground_force_pz	3_ground_torque_x	3_ground_torque_y	3_ground_torque_z	
          2.00950000	       -105.81186900	        709.93857500	        -24.82603500	         -0.12049700	          0.00600000	         -0.46438100	          0.00000000	         -2.27805100	          0.00000000	       -109.72264200	        733.31042600	         42.68379000	         -0.13864400	          0.00600000	         -0.75399800	          0.00000000	          5.24112900	          0.00000000	          0.00000000	          0.00000000	          0.00000000	          0.00000000	          0.00000000	          0.00000000	          0.00000000	          0.00000000	          0.00000000	
          2.01000000	       -103.74976000	        701.26186500	        -23.73714600	         -0.12022700	          0.00600000	         -0.46433500	          0.00000000	         -2.26255400	          0.00000000	       -108.68848900	        726.74934400	         41.63507600	         -0.13835600	          0.00600000	         -0.75401800	          0.00000000	          5.20207400	          0.00000000	          0.00000000	          0.00000000	          0.00000000	          0.00000000	          0.00000000	          0.00000000	          0.00000000	          0.00000000	          0.00000000	
          2.01050000	       -101.64002600	        692.49252100	        -22.63994100	         -0.11995700	          0.00600000	         -0.46428900	          0.00000000	         -2.24860300	          0.00000000	       -107.61476200	        720.09374100	         40.57561200	         -0.13806600	          0.00600000	         -0.75403900	          0.00000000	          5.16372000	          0.00000000	          0.00000000	          0.00000000	          0.00000000	          0.00000000	          0.00000000	          0.00000000	          0.00000000	          0.00000000	          0.00000000	
          2.01100000	        -99.48317000	        683.63204800	        -21.53464300	         -0.11968700	          0.00600000	         -0.46424200	          0.00000000	         -2.23624400	          0.00000000	       -106.50129400	        713.34429600	         39.50536200	         -0.13777500	          0.00600000	         -0.75406200	          0.00000000	          5.12612200	          0.00000000	          0.00000000	          0.00000000	          0.00000000	          0.00000000	          0.00000000	          0.00000000	          0.00000000	          0.00000000	          0.00000000	
          2.01150000	        -97.27977400	        674.68190200	        -20.42147700	         -0.11941700	          0.00600000	         -0.46419400	          0.00000000	         -2.22550900	          0.00000000	       -105.34798500	        706.50171800	         38.42429800	         -0.13748300	          0.00600000	         -0.75408500	          0.00000000	          5.08933700	          0.00000000	          0.00000000	          0.00000000	          0.00000000	          0.00000000	          0.00000000	          0.00000000	          0.00000000	          0.00000000	          0.00000000	
          2.01200000	        -95.03048400	        665.64348400	        -19.30066100	         -0.11914800	          0.00600000	         -0.46414600	          0.00000000	         -2.21641800	          0.00000000	       -104.15478600	        699.56674400	         37.33238600	         -0.13719000	          0.00600000	         -0.75410900	          0.00000000	          5.05343100	          0.00000000	          0.00000000	          0.00000000	          0.00000000	          0.00000000	          0.00000000	          0.00000000	          0.00000000	          0.00000000	          0.00000000	
          2.01250000	        -92.73600500	        656.51812700	        -18.17241700	         -0.11887900	          0.00600000	         -0.46409700	          0.00000000	         -2.20898500	          0.00000000	       -102.92169900	        692.54013700	         36.22957700	         -0.13689600	          0.00600000	         -0.75413300	          0.00000000	          5.01847500	          0.00000000	          0.00000000	          0.00000000	          0.00000000	          0.00000000	          0.00000000	          0.00000000	          0.00000000	          0.00000000	          0.00000000	
          2.01300000	        -90.39708600	        647.30708000	        -17.03697000	         -0.11861100	          0.00600000	         -0.46404800	          0.00000000	         -2.20322100	          0.00000000	       -101.64876600	        685.42267800	         35.11580100	         -0.13660000	          0.00600000	         -0.75415900	          0.00000000	          4.98454700	          0.00000000	          0.00000000	          0.00000000	          0.00000000	          0.00000000	          0.00000000	          0.00000000	          0.00000000	          0.00000000	          0.00000000	
          2.01350000	        -88.01452500	        638.01149300	        -15.89455600	         -0.11834300	          0.00600000	         -0.46399900	          0.00000000	         -2.19912900	          0.00000000	       -100.33606200	        678.21517000	         33.99096800	         -0.13630400	          0.00600000	         -0.75418500	          0.00000000	          4.95172000	          0.00000000	          0.00000000	          0.00000000	          0.00000000	          0.00000000	          0.00000000	          0.00000000	          0.00000000	          0.00000000	          0.00000000	
          2.01400000	        -85.58914900	        628.63240000	        -14.74542600	         -0.11807700	          0.00600000	         -0.46395000	          0.00000000	         -2.19670400	          0.00000000	        -98.98368100	        670.91841500	         32.85497100	         -0.13600700	          0.00600000	         -0.75421100	          0.00000000	          4.92006500	          0.00000000	          0.00000000	          0.00000000	          0.00000000	          0.00000000	          0.00000000	          0.00000000	          0.00000000	          0.00000000	          0.00000000	
          2.01450000	        -83.12181100	        619.17073100	        -13.58985000	         -0.11781300	          0.00600000	         -0.46390100	          0.00000000	         -2.19593700	          0.00000000	        -97.59171800	        663.53317600	         31.70768400	         -0.13570900	          0.00600000	         -0.75423800	          0.00000000	          4.88965100	          0.00000000	          0.00000000	          0.00000000	          0.00000000	          0.00000000	          0.00000000	          0.00000000	          0.00000000	          0.00000000	          0.00000000	
